<svg width="24" height="24" viewBox="0 0 24 24" fill="none" xmlns="http://www.w3.org/2000/svg">
<path d="M11.9202 12.9319C11.9451 12.9319 11.9699 12.9319 11.9998 12.9319C12.0097 12.9319 12.0196 12.9319 12.0296 12.9319C12.0445 12.9319 12.0644 12.9319 12.0793 12.9319C13.5355 12.907 14.7134 12.3951 15.5831 11.416C17.4965 9.25906 17.1785 5.5614 17.1437 5.20853C17.0194 2.55954 15.767 1.29219 14.7332 0.700766C13.9629 0.258439 13.0633 0.0198799 12.0594 0H12.0246C12.0196 0 12.0097 0 12.0047 0H11.9749C11.4232 0 10.3398 0.0894595 9.30106 0.680886C8.25736 1.27231 6.98505 2.53966 6.8608 5.20853C6.82601 5.5614 6.50793 9.25906 8.42137 11.416C9.28615 12.3951 10.464 12.907 11.9202 12.9319ZM8.18779 5.33278C8.18779 5.31787 8.19276 5.30296 8.19276 5.29302C8.35676 1.72955 10.8865 1.34686 11.9699 1.34686H11.9898C11.9998 1.34686 12.0147 1.34686 12.0296 1.34686C13.3715 1.37668 15.6527 1.92338 15.8068 5.29302C15.8068 5.30793 15.8068 5.32284 15.8117 5.33278C15.8167 5.36757 16.1646 8.74715 14.5841 10.5264C13.9579 11.2321 13.123 11.58 12.0246 11.59C12.0147 11.59 12.0097 11.59 11.9998 11.59C11.9898 11.59 11.9848 11.59 11.9749 11.59C10.8815 11.58 10.0416 11.2321 9.42034 10.5264C7.84486 8.75709 8.18282 5.3626 8.18779 5.33278Z" fill="#666666"/>
<path d="M22.213 19.0647C22.213 19.0598 22.213 19.0548 22.213 19.0498C22.213 19.0101 22.2081 18.9703 22.2081 18.9256C22.1782 17.9415 22.1136 15.6404 19.9567 14.9049C19.9418 14.8999 19.9219 14.8949 19.907 14.89C17.6655 14.3184 15.8018 13.0262 15.7819 13.0113C15.4787 12.7976 15.0612 12.8721 14.8475 13.1753C14.6338 13.4785 14.7084 13.896 15.0115 14.1097C15.096 14.1693 17.0741 15.546 19.5491 16.1822C20.7071 16.5947 20.8363 17.8322 20.8711 18.9653C20.8711 19.0101 20.8711 19.0498 20.8761 19.0896C20.8811 19.5369 20.8513 20.2277 20.7717 20.6253C19.9666 21.0825 16.8107 22.663 12.0097 22.663C7.22857 22.663 4.05275 21.0776 3.24265 20.6203C3.16313 20.2227 3.12834 19.5319 3.13828 19.0846C3.13828 19.0449 3.14325 19.0051 3.14325 18.9604C3.17804 17.8272 3.30726 16.5897 4.46526 16.1772C6.94031 15.541 8.91836 14.1594 9.00285 14.1047C9.30601 13.891 9.38056 13.4735 9.16685 13.1703C8.95315 12.8672 8.53567 12.7926 8.2325 13.0063C8.21262 13.0212 6.35882 14.3134 4.10742 14.885C4.08754 14.89 4.07263 14.8949 4.05772 14.8999C1.90076 15.6404 1.83615 17.9415 1.80633 18.9206C1.80633 18.9653 1.80633 19.0051 1.80136 19.0449C1.80136 19.0498 1.80136 19.0548 1.80136 19.0598C1.79639 19.3182 1.79142 20.6452 2.05482 21.3112C2.10452 21.4404 2.19398 21.5497 2.31326 21.6243C2.46236 21.7237 6.03577 23.9999 12.0146 23.9999C17.9935 23.9999 21.5669 21.7187 21.716 21.6243C21.8303 21.5497 21.9248 21.4404 21.9745 21.3112C22.223 20.6502 22.218 19.3232 22.213 19.0647Z" fill="#666666"/>
</svg>
