<svg width="24" height="24" viewBox="0 0 24 24" fill="none" xmlns="http://www.w3.org/2000/svg">
<path d="M22.2329 9.08692H21.8834C21.3026 7.59554 20.3281 6.24198 19.0286 5.14436C18.8465 4.48481 18.9843 3.77111 19.4519 3.03281C19.7128 2.61443 19.7276 2.11238 19.4913 1.68416C19.255 1.26087 18.8121 1 18.3346 1C18.2805 1 18.2214 1.00492 18.1673 1.00984C16.3707 1.23134 15.278 2.03363 14.6234 2.79655C13.8359 2.55044 12.8367 2.47661 12.6497 2.46185C12.187 2.41263 11.7145 2.3831 11.2469 2.3831C8.2592 2.3831 5.44871 3.40688 3.3273 5.25757C1.18129 7.13287 0 9.63819 0 12.3059C0 12.995 0.0787528 13.6841 0.24118 14.3584C0.246102 14.3732 0.246102 14.388 0.251024 14.3978L0.255946 14.4224C0.423296 15.1017 0.674321 15.7661 0.994254 16.4011C1.53076 17.5528 2.17062 18.5176 2.88924 19.2608C3.8835 20.2846 4.05577 21.584 4.08038 22.1057V22.3617C4.08038 22.3715 4.08038 22.3863 4.08038 22.3961C4.08038 22.4503 4.0853 22.4995 4.09514 22.5487C4.18866 23.1591 4.71532 23.6267 5.34534 23.6267H9.01227C9.7112 23.6267 10.2772 23.0606 10.2772 22.3617V22.1943C10.799 22.2337 11.3256 22.2386 11.8523 22.214V22.3617C11.8523 23.0606 12.4183 23.6267 13.1173 23.6267H16.7842C17.4831 23.6267 18.0491 23.0606 18.0491 22.3617V21.4659C18.0541 21.2591 18.1328 20.2797 19.0631 19.4331C19.1074 19.3937 19.1566 19.3543 19.2009 19.3149C19.2058 19.31 19.2058 19.31 19.2107 19.3051C19.2255 19.2952 19.2354 19.2854 19.2452 19.2706C20.4708 18.173 21.3961 16.8342 21.9326 15.3724H22.223C23.2025 15.3724 23.9999 14.575 23.9999 13.5955V10.8539C24.0097 9.87937 23.2124 9.08692 22.2329 9.08692ZM18.3346 2.32403C18.3297 2.32403 18.3297 2.32403 18.3346 2.32403C18.3297 2.31911 18.3297 2.31911 18.3297 2.31911C18.3297 2.31911 18.3297 2.31911 18.3297 2.32403L18.246 1.66448L18.3346 2.32403ZM22.6808 13.6004C22.6808 13.8465 22.479 14.0483 22.2329 14.0483H21.465C21.1746 14.0483 20.9138 14.2403 20.8301 14.5159C20.397 15.9335 19.5356 17.2428 18.3494 18.301C18.3445 18.3059 18.3445 18.3059 18.3395 18.3108L18.3346 18.3158C18.2903 18.3551 18.246 18.3945 18.2017 18.4339C18.1968 18.4388 18.1919 18.4437 18.187 18.4487C16.8728 19.6398 16.7399 21.0426 16.73 21.4462C16.73 21.4511 16.73 21.456 16.73 21.4609V22.3026H13.1862V21.5003C13.1862 21.3133 13.1074 21.1312 12.9647 21.0081C12.8269 20.8801 12.6349 20.8211 12.4528 20.8408C12.0492 20.8851 11.6456 20.9048 11.2469 20.9048C10.7301 20.9048 10.2132 20.8703 9.70628 20.8014C9.51432 20.7768 9.32236 20.8358 9.17962 20.9589C9.03688 21.0869 8.9532 21.269 8.9532 21.4609V22.3026H5.41425V22.091C5.41425 22.0811 5.41425 22.0713 5.41425 22.0614C5.38472 21.397 5.17307 19.6989 3.84904 18.3354C3.22886 17.6956 2.67267 16.8539 2.20016 15.8301C2.19523 15.8203 2.19031 15.8154 2.19031 15.8055C1.90975 15.2592 1.69318 14.6882 1.55044 14.1025C1.55044 14.0976 1.54552 14.0926 1.54552 14.0877C1.54552 14.0828 1.54552 14.0828 1.54552 14.0779C1.40771 13.4971 1.33387 12.9015 1.33387 12.3109C1.33387 7.57093 5.78341 3.71697 11.2518 3.71697C11.6751 3.71697 12.1033 3.74158 12.5217 3.78588C12.5315 3.78588 12.5414 3.78588 12.5512 3.7908C13.1025 3.82525 14.1263 3.96799 14.5348 4.18949C14.835 4.35191 15.2091 4.25839 15.4011 3.97784C15.8293 3.34289 16.6857 2.5406 18.3297 2.3388C17.6652 3.40196 17.4683 4.5045 17.7587 5.53321C17.7637 5.72517 17.8572 5.90728 18.0048 6.03033C19.3338 7.10334 20.2985 8.46674 20.7907 9.96797C20.8793 10.2387 21.1353 10.4257 21.4208 10.4257C21.4257 10.4257 21.4257 10.4257 21.4306 10.4257H22.2378C22.4839 10.4257 22.6857 10.6275 22.6857 10.8736V13.6004H22.6808Z" fill="#666666"/>
</svg>
