<svg width="24" height="24" viewBox="0 0 24 24" fill="none" xmlns="http://www.w3.org/2000/svg">
<path d="M20.4767 3.51628C18.2087 1.2482 15.1998 0 11.993 0C8.78625 0 5.77737 1.2482 3.50929 3.51628C-0.874643 7.90021 -1.17908 14.9175 2.75327 19.6516C2.36764 20.4279 1.74861 21.3311 0.830221 21.7827C0.388783 22.0008 0.140157 22.4727 0.216267 22.9598C0.292377 23.4469 0.667853 23.8275 1.15496 23.9036C1.38329 23.9391 1.70802 23.9746 2.10379 23.9746C3.16426 23.9746 4.72705 23.726 6.32536 22.5742C8.10633 23.5332 10.0548 24 11.9879 24C15.0932 24 18.1681 22.7975 20.4818 20.4837C22.7499 18.2156 23.9981 15.2068 23.9981 12C23.9981 8.79323 22.7448 5.78436 20.4767 3.51628ZM19.5076 19.5146C16.0827 22.9395 10.7803 23.6195 6.60951 21.1687C6.33551 21.0063 5.99555 21.0571 5.77737 21.2753C5.75707 21.2854 5.73678 21.3006 5.72156 21.3159C4.3465 22.3814 2.99682 22.6047 2.10379 22.6047H2.09872C3.12874 21.8537 3.77821 20.7374 4.15876 19.8698C4.21965 19.7226 4.2298 19.5704 4.19428 19.4283C4.17906 19.2913 4.12325 19.1543 4.02684 19.0427C0.312673 14.8465 0.505485 8.45328 4.47335 4.48541C8.61881 0.339958 15.3622 0.339958 19.5025 4.48541C23.6531 8.63087 23.6531 15.3691 19.5076 19.5146Z" fill="#666666"/>
<path d="M11.993 12.8423C12.4582 12.8423 12.8353 12.4652 12.8353 12C12.8353 11.5348 12.4582 11.1577 11.993 11.1577C11.5278 11.1577 11.1507 11.5348 11.1507 12C11.1507 12.4652 11.5278 12.8423 11.993 12.8423Z" fill="#666666"/>
<path d="M16.3364 12.8423C16.8015 12.8423 17.1786 12.4652 17.1786 12C17.1786 11.5348 16.8015 11.1577 16.3364 11.1577C15.8712 11.1577 15.4941 11.5348 15.4941 12C15.4941 12.4652 15.8712 12.8423 16.3364 12.8423Z" fill="#666666"/>
<path d="M7.64967 12.8423C8.11485 12.8423 8.49195 12.4652 8.49195 12C8.49195 11.5348 8.11485 11.1577 7.64967 11.1577C7.18449 11.1577 6.80739 11.5348 6.80739 12C6.80739 12.4652 7.18449 12.8423 7.64967 12.8423Z" fill="#666666"/>
</svg>
