<svg width="24" height="24" viewBox="0 0 24 24" fill="none" xmlns="http://www.w3.org/2000/svg">
<path d="M23.7784 11.3324L12.4842 1.23274C12.4645 1.213 12.4447 1.19819 12.42 1.18338C12.1732 0.94644 11.7783 0.936567 11.5167 1.16857L0.222507 11.2682C-0.0539246 11.515 -0.0736697 11.9346 0.168208 12.211C0.301487 12.3591 0.484129 12.4332 0.666772 12.4332C0.824732 12.4332 0.982693 12.3789 1.11104 12.2653L3.14478 10.4438V10.7993V16.0712V22.2218C3.14478 23.1449 3.8951 23.9001 4.82312 23.9001C4.83792 23.9001 4.8478 23.9001 4.86261 23.9001C4.87741 23.9001 4.88729 23.9001 4.9021 23.9001H8.38711C9.25589 23.9001 9.96178 23.1943 9.96178 22.3255V16.3378C9.96178 16.2045 10.0704 16.0959 10.2037 16.0959H13.8022C13.9355 16.0959 14.0441 16.2045 14.0441 16.3378V22.3255C14.0441 23.1943 14.75 23.9001 15.6187 23.9001H19.1827C20.1206 23.9001 20.8611 22.9771 20.8611 21.7973V16.3081V14.6298V10.508L22.8948 12.3295C23.0232 12.443 23.1811 12.4973 23.3391 12.4973C23.5217 12.4973 23.7044 12.4233 23.8376 12.2752C24.0746 11.9988 24.0499 11.5792 23.7784 11.3324ZM19.5233 14.6249V16.3032V21.7874C19.5233 22.2662 19.2864 22.5575 19.1778 22.5575H15.6138C15.4805 22.5575 15.3719 22.4489 15.3719 22.3156V16.3378C15.3719 15.469 14.666 14.7631 13.7973 14.7631H10.1987C9.32993 14.7631 8.62405 15.469 8.62405 16.3378V22.3255C8.62405 22.4588 8.51545 22.5673 8.38217 22.5673H4.89716C4.88235 22.5673 4.87248 22.5673 4.85767 22.5673C4.84286 22.5673 4.83299 22.5673 4.81818 22.5673C4.6306 22.5673 4.47264 22.4143 4.47264 22.2218V16.0663V10.7943V9.24926L11.9659 2.55567L19.5233 9.31343V14.6249Z" fill="#666666"/>
</svg>
