<svg width="24" height="24" viewBox="0 0 24 24" fill="none" xmlns="http://www.w3.org/2000/svg">
<path d="M11.3769 21.7967H5.89962C4.41108 21.7967 3.20331 20.5845 3.20331 19.1004V5.89962C3.20331 4.41108 4.41553 3.20331 5.89962 3.20331H11.466C11.8003 3.20331 12.0677 2.93591 12.0677 2.60166C12.0677 2.2674 11.8003 2 11.466 2H5.89962C3.74703 2 2 3.75149 2 5.89962V19.1004C2 21.253 3.75149 23 5.89962 23H11.3769C11.7112 23 11.9786 22.7326 11.9786 22.3983C11.9786 22.0641 11.7067 21.7967 11.3769 21.7967Z" fill="#FF8B7E"/>
<path d="M21.2886 12.0766L17.4648 8.25278C17.2286 8.01657 16.8497 8.01657 16.6135 8.25278C16.3773 8.48898 16.3773 8.8678 16.6135 9.10401L19.4124 11.9028H7.20543C6.87118 11.9028 6.60378 12.1702 6.60378 12.5045C6.60378 12.8387 6.87118 13.1061 7.20543 13.1061H19.4124L16.6135 15.905C16.3773 16.1412 16.3773 16.52 16.6135 16.7562C16.7294 16.8721 16.8854 16.9345 17.0369 16.9345C17.1885 16.9345 17.3444 16.8765 17.4603 16.7562L21.2842 12.9323C21.5248 12.6917 21.5248 12.3084 21.2886 12.0766Z" fill="#FF8B7E"/>
</svg>
