<svg width="24" height="24" viewBox="0 0 24 24" fill="none" xmlns="http://www.w3.org/2000/svg">
<path d="M15.0543 4.19739H3.89719C2.8503 4.19739 2 5.04768 2 6.09458V22.1028C2 23.1497 2.8503 23.9999 3.89719 23.9999H15.0543C16.1012 23.9999 16.9515 23.1497 16.9515 22.1028V6.09458C16.9466 5.04768 16.0963 4.19739 15.0543 4.19739ZM15.6195 22.0978C15.6195 22.4124 15.3639 22.668 15.0494 22.668H3.89228C3.57772 22.668 3.32214 22.4124 3.32214 22.0978V6.09458C3.32214 5.78002 3.57772 5.52444 3.89228 5.52444H15.0494C15.3639 5.52444 15.6195 5.78002 15.6195 6.09458V22.0978Z" fill="#666666"/>
<path d="M19.3205 0H8.16343C7.11653 0 6.26624 0.850297 6.26624 1.89719C6.26624 2.26582 6.56114 2.56072 6.92976 2.56072C7.29839 2.56072 7.59329 2.26582 7.59329 1.89719C7.59329 1.58263 7.84887 1.32705 8.16343 1.32705H19.3205C19.6351 1.32705 19.8906 1.58263 19.8906 1.89719V17.9054C19.8906 18.2199 19.6351 18.4755 19.3205 18.4755C18.9519 18.4755 18.657 18.7704 18.657 19.1391C18.657 19.5077 18.9519 19.8026 19.3205 19.8026C20.3674 19.8026 21.2177 18.9523 21.2177 17.9054V1.89719C21.2177 0.850297 20.3674 0 19.3205 0Z" fill="#666666"/>
<path d="M9.87876 15.6387H12.5995V14.3057H9.87876V11.4551H8.53208V14.3057H5.81822V15.6387H8.53208V18.4893H9.87876V15.6387Z" fill="#666666"/>
</svg>
